<?xml version="1.0" standalone="no"?><!DOCTYPE svg PUBLIC "-//W3C//DTD SVG 1.1//EN" "http://www.w3.org/Graphics/SVG/1.1/DTD/svg11.dtd"><svg t="1582692877665" class="icon" viewBox="0 0 1024 1024" version="1.1" xmlns="http://www.w3.org/2000/svg" p-id="5895" xmlns:xlink="http://www.w3.org/1999/xlink" width="200" height="200"><defs><style type="text/css"></style></defs><path d="M518.464 675.52l233.6-233.6a44.8 44.8 0 0 0 0-63.36l-9.088-9.024a44.8 44.8 0 0 0-63.36 0L473.152 576 370.688 473.6a44.8 44.8 0 0 0-63.36 0l-9.024 8.96a44.8 44.8 0 0 0 0 63.36l143.488 143.552a44.8 44.8 0 0 0 63.36 0l9.024-9.024a45.184 45.184 0 0 0 4.288-4.928zM512 1024A512 512 0 1 1 512 0a512 512 0 0 1 0 1024z" p-id="5896"></path></svg>
