<?xml version="1.0" standalone="no"?><!DOCTYPE svg PUBLIC "-//W3C//DTD SVG 1.1//EN" "http://www.w3.org/Graphics/SVG/1.1/DTD/svg11.dtd"><svg t="1582692542419" class="icon" viewBox="0 0 1024 1024" version="1.1" xmlns="http://www.w3.org/2000/svg" p-id="2108" xmlns:xlink="http://www.w3.org/1999/xlink" width="200" height="200"><defs><style type="text/css"></style></defs><path d="M512.345 2.207c-281.254 0-509.254 228-509.254 509.254s228 509.254 509.254 509.254 509.253-228 509.253-509.253-228-509.255-509.253-509.255z m223.847 663.93c19.628 19.672 19.628 51.58 0 71.252-9.813 9.836-22.676 14.76-35.538 14.76-12.861 0-25.724-4.925-35.539-14.76l-153.14-153.644-153.14 153.642c-9.814 9.836-22.677 14.76-35.532 14.76-12.869 0-25.724-4.925-35.538-14.76-19.628-19.672-19.628-51.58 0-71.253l153.14-153.648-153.141-153.641c-19.628-19.672-19.628-51.58 0-71.253 19.628-19.665 51.442-19.665 71.07 0l153.14 153.642 153.141-153.642c19.635-19.665 51.442-19.665 71.078 0 19.628 19.672 19.628 51.58 0 71.253L583.051 512.486l153.141 153.65z" p-id="2109"></path></svg>