<?xml version="1.0" standalone="no"?><!DOCTYPE svg PUBLIC "-//W3C//DTD SVG 1.1//EN" "http://www.w3.org/Graphics/SVG/1.1/DTD/svg11.dtd"><svg t="1581235910039" class="icon" viewBox="0 0 1024 1024" version="1.1" xmlns="http://www.w3.org/2000/svg" p-id="5299" xmlns:xlink="http://www.w3.org/1999/xlink" width="200" height="200"><defs><style type="text/css"></style></defs><path d="M180.064 626.215c-61.005 0-110.648-51.246-110.648-114.212 0-62.974 49.643-114.217 110.648-114.217 60.995 0 110.644 51.238 110.644 114.217 0 62.965-49.649 114.212-110.644 114.212z m331.935 0c-61 0-110.648-51.246-110.648-114.212 0-62.974 49.648-114.217 110.648-114.217 61.005 0 110.65 51.238 110.65 114.217 0 62.965-49.645 114.212-110.65 114.212z m331.94 0c-61.004 0-110.643-51.246-110.643-114.212 0-62.974 49.64-114.217 110.643-114.217 61.001 0 110.644 51.238 110.644 114.217 0 62.965-49.643 114.212-110.644 114.212z m0 0" p-id="5300"></path></svg>