<?xml version="1.0" standalone="no"?><!DOCTYPE svg PUBLIC "-//W3C//DTD SVG 1.1//EN" "http://www.w3.org/Graphics/SVG/1.1/DTD/svg11.dtd"><svg t="1582542625703" class="icon" viewBox="0 0 1024 1024" version="1.1" xmlns="http://www.w3.org/2000/svg" p-id="3051" xmlns:xlink="http://www.w3.org/1999/xlink" width="200" height="200"><defs><style type="text/css"></style></defs><path d="M554.667 646.4V384c0-23.467-19.2-42.667-42.667-42.667s-42.667 19.2-42.667 42.667v262.4C420.267 663.467 384 710.4 384 768c0 70.4 57.6 128 128 128s128-57.6 128-128c0-55.467-36.267-102.4-85.333-121.6zM640 597.333V170.667c0-70.4-57.6-128-128-128s-128 57.6-128 128v426.666C332.8 635.733 298.667 697.6 298.667 768c0 117.333 96 213.333 213.333 213.333s213.333-96 213.333-213.333c0-70.4-34.133-132.267-85.333-170.667zM512 938.667c-93.867 0-170.667-76.8-170.667-170.667 0-64 34.134-117.333 85.334-147.2V170.667c0-46.934 38.4-85.334 85.333-85.334s85.333 38.4 85.333 85.334V620.8c51.2 29.867 85.334 85.333 85.334 147.2 0 93.867-76.8 170.667-170.667 170.667z" p-id="3052"></path></svg>